<svg width="263" height="60" viewBox="0 0 263 60" fill="none" xmlns="http://www.w3.org/2000/svg">
<path fill-rule="evenodd" clip-rule="evenodd" d="M76.9987 0.766971C76.9987 1.24141 77.158 1.4356 77.3532 1.19828C77.5476 0.960965 77.5476 0.572977 77.3532 0.335661C77.158 0.0983449 76.9987 0.29253 76.9987 0.766971ZM239.447 1.67751C239.373 2.12569 239.198 2.49221 239.056 2.49221C238.914 2.49221 236.757 2.40365 234.264 2.29553C229.207 2.07624 226.104 2.25068 223.754 2.88672C222.562 3.20934 221.999 3.23502 220.012 3.05771C218.726 2.94288 217.121 2.73566 216.446 2.59745C213.965 2.0887 211.508 2.04997 209.521 2.48819C207.657 2.89898 207.623 2.89937 206.512 2.52672C205.414 2.15905 204.092 2.14946 151.246 2.12819C116.357 2.11419 96.5612 2.17496 95.5729 2.29918C94.7292 2.40518 93.8038 2.66588 93.5163 2.87866C93.2288 3.09144 91.5421 3.43918 89.7698 3.65138L86.546 4.03745L84.6249 3.55093C83.568 3.28333 81.3538 2.84934 79.7039 2.58652L76.7039 2.10882H51.9427H27.1807L28.0391 2.86333C28.708 3.45202 28.6394 3.73649 27.7271 4.15726C27.0835 4.454 26.555 5.03119 26.5509 5.44007C26.5436 6.39029 24.2558 6.82314 22.3748 6.23023C21.705 6.01937 21.3252 5.69598 21.5286 5.51138C21.7524 5.30972 21.442 5.17592 20.751 5.17592C20.0862 5.17592 19.6027 5.3678 19.6027 5.63176C19.6027 6.20186 17.6743 6.59445 15.5229 6.46256C14.0021 6.36921 13.8853 6.45528 13.8853 7.66985C13.8853 8.53687 13.5414 9.01036 12.8643 9.07457C12.0475 9.15183 12.0475 9.17426 12.8643 9.18633C13.6043 9.19726 13.8853 9.70007 13.8853 11.0151V12.8287L6.73854 12.8925L-0.408203 12.9566L6.73854 12.9959L13.8853 13.0353V17.1334C13.8853 20.542 14.0911 21.2713 15.1104 21.4698C16.6803 21.7756 16.6803 22.3143 15.1104 22.62C14.2577 22.7862 13.8853 23.2273 13.8853 24.0725C13.8853 25.1116 14.1793 25.3553 15.9272 25.7655C17.0503 26.0291 17.9691 26.3389 17.9691 26.4539C17.9691 26.5689 17.0503 26.8787 15.9272 27.1422C14.7069 27.4286 13.8853 27.8408 13.8853 28.1665C13.8853 28.6392 14.2708 28.7285 16.7873 28.8393C18.3824 28.9095 19.8575 29.0705 20.0641 29.1968C20.2708 29.3231 19.5871 29.9438 18.5458 30.576L16.6517 31.7254L8.12133 31.8316L-0.408203 31.938L7.45974 31.9754L15.3285 32.013L15.7638 32.5401C16.0244 32.8562 15.7353 33.1884 15.0418 33.37C14.3647 33.5471 13.8853 34.0767 13.8853 34.6478C13.8853 35.2488 13.4932 35.6603 12.8643 35.7199C12.0475 35.7972 12.0475 35.8196 12.8643 35.8317C13.454 35.8405 13.8853 36.1049 13.8853 36.4576C13.8853 36.8072 14.5934 37.2451 15.5425 37.4822C18.7924 38.294 18.4502 40.6392 15.0818 40.6392C13.218 40.6392 13.4949 42.6291 15.4927 43.5978C16.3789 44.0275 17.2961 44.9768 17.5371 45.7137C17.7772 46.4488 18.1921 47.2112 18.4584 47.4081C18.7769 47.6438 18.3579 47.862 17.2308 48.0474C15.1121 48.3955 14.8768 49.7599 16.7864 50.6264C18.2411 51.2866 17.7412 51.8617 15.4633 52.1477C13.3086 52.4183 13.4834 52.884 15.9689 53.493C17.1156 53.7736 18.1161 54.1988 18.1929 54.4374C18.3751 55.0066 21.469 55.4755 24.0418 55.324C26.3222 55.1896 29.7641 55.4854 32.4897 56.0498C35.0511 56.58 44.2675 56.8077 48.0851 56.4351C51.6511 56.0872 53.4562 56.0954 54.7671 56.4661C55.4156 56.6496 56.9601 56.7539 58.7464 56.7351C60.3522 56.7182 65.0518 56.7127 69.1896 56.7228L76.7129 56.7414L76.9849 58.4187L77.2577 60.096L77.4251 58.4187L77.5934 56.7414L79.8395 56.7111C81.0752 56.6944 89.2527 56.6555 98.0126 56.6245C106.772 56.5934 114.491 56.566 115.165 56.5635C116.519 56.5583 211.32 56.691 228.46 56.7219L239.25 56.7414L239.522 58.4187C239.783 60.0268 239.803 60.0052 239.988 57.8916C240.126 56.3356 240.526 55.5805 241.351 55.325C242.123 55.0858 242.376 54.6957 242.097 54.1748C241.516 53.0891 243.998 52.1408 247.421 52.1408C250.478 52.1408 250.912 51.9648 250.874 50.7397C250.85 49.9532 250.491 49.6894 249.162 49.4816C247.067 49.1536 247.045 48.8724 249.069 48.2686C250.555 47.825 250.656 47.4445 250.682 42.2128C250.698 38.7847 250.401 36.5858 249.911 36.5149C248.846 36.3602 248.891 34.8259 249.969 34.5728C251.07 34.3146 251.062 28.3976 249.961 27.7179C249.436 27.3936 249.433 27.0497 249.952 26.729C250.39 26.4585 250.746 25.7469 250.744 25.1475C250.739 24.1334 250.565 24.0345 248.244 23.7243C246.062 23.4332 245.78 23.3013 246.002 22.6777C246.209 22.0974 246.638 21.9433 248.298 21.8523L250.34 21.7403L250.561 17.6755C250.771 13.7933 250.711 13.6104 249.231 13.6104C248.379 13.6104 247.224 13.481 246.665 13.3229C245.772 13.0704 246.699 13.0353 254.276 13.0353C259.021 13.0353 263.075 12.9705 263.284 12.8916C263.494 12.8124 259.453 12.7746 254.304 12.8074L244.942 12.8672L245.191 11.8507C245.409 10.9589 245.714 10.8033 247.672 10.584C250.416 10.2765 251.48 9.43994 250.64 8.24761C250.304 7.77068 250.007 7.01675 249.981 6.57221C249.942 5.94192 249.393 5.63483 247.482 5.17592C244.611 4.48697 244.423 4.14422 246.665 3.69374C248.641 3.29656 248.681 3.18422 246.983 2.78588C245.773 2.50199 245.587 2.50256 244.682 2.79298C244.141 2.96684 242.988 3.07726 242.119 3.03854C240.861 2.98237 240.441 2.75387 240.06 1.91541C239.608 0.92416 239.572 0.910358 239.447 1.67751ZM257.079 31.9566C258.09 32.0022 259.743 32.0022 260.754 31.9566C261.765 31.9108 260.938 31.8734 258.916 31.8734C256.895 31.8734 256.067 31.9108 257.079 31.9566ZM3.48289 50.9366C4.72438 50.9804 6.56211 50.9793 7.56674 50.9339C8.57137 50.8884 7.55531 50.8524 5.30919 50.8537C3.06307 50.8553 2.2414 50.8925 3.48289 50.9366ZM14.5493 50.9298C15.1382 50.9852 15.8431 50.9783 16.1142 50.9147C16.3854 50.8511 15.9035 50.8058 15.0426 50.8141C14.0911 50.8233 13.8975 50.8687 14.5493 50.9298Z" fill="white" fill-opacity="0.7"/>
</svg>
